# xmcd
#
# Track frame offsets: 
#        150
#        10411
#        22135
#        31700
#        43170
#        52749
#        68082
#        85817
#        98221
#        110619
#        123299
#        133525
#        145706
#        155491
#
# Disc length: 2235 seconds
#
# Revision: 0
# Processed by: cddbd v1.5.2PL0 Copyright (c) Steve Scherf et al.
# Submitted via: ExactAudioCopy v0.99pb5
#
DISCID=b208b90e
DTITLE=Various Artist - Country Stars [CD3]
DYEAR=2005
DGENRE=Country
TTITLE0=Johnny Paycheck - A-11
TTITLE1=Waylon Jennings - Crying
TTITLE2=Hank Thomson - Green Light
TTITLE3=Patsy Cline - Let The Teardrops Fall
TTITLE4=Faron Young - Hello Walls
TTITLE5=Roy Clark - I'll Paint You A Song
TTITLE6=Glen Campbell - It's Your World Boys And Girls (Live)
TTITLE7=Bobby Bare - Music City USA
TTITLE8=Kitty Wells - One By One
TTITLE9=Lynn Anderson - Rose Garden
TTITLE10=Dave Dudley - Seven Lonely Days
TTITLE11=Willie Nelson - Shelter Of My Arms
TTITLE12=Buck Owens - The House Down The Block
TTITLE13=Ferlin Husky - The Letter You Promised To Write
EXTD=
EXTT0=
EXTT1=
EXTT2=
EXTT3=
EXTT4=
EXTT5=
EXTT6=
EXTT7=
EXTT8=
EXTT9=
EXTT10=
EXTT11=
EXTT12=
EXTT13=
PLAYORDER=
